<?xml version="1.0" encoding="UTF-8" standalone="no"?>
<!-- Created with Inkscape (http://www.inkscape.org/) -->
<svg
   xmlns:dc="http://purl.org/dc/elements/1.1/"
   xmlns:cc="http://web.resource.org/cc/"
   xmlns:rdf="http://www.w3.org/1999/02/22-rdf-syntax-ns#"
   xmlns:svg="http://www.w3.org/2000/svg"
   xmlns="http://www.w3.org/2000/svg"
   xmlns:sodipodi="http://sodipodi.sourceforge.net/DTD/sodipodi-0.dtd"
   xmlns:inkscape="http://www.inkscape.org/namespaces/inkscape"
   width="248.55692"
   height="262.51495"
   id="svg2"
   sodipodi:version="0.32"
   inkscape:version="0.45.1"
   version="1.0"
   sodipodi:docbase="C:\Users\TML\Desktop"
   sodipodi:docname="tfs.svg"
   inkscape:output_extension="org.inkscape.output.svg.inkscape">
  <defs
     id="defs4" />
  <sodipodi:namedview
     id="base"
     pagecolor="#ffffff"
     bordercolor="#666666"
     borderopacity="1.0"
     gridtolerance="10000"
     guidetolerance="10"
     objecttolerance="10"
     inkscape:pageopacity="0.0"
     inkscape:pageshadow="2"
     inkscape:zoom="1.4"
     inkscape:cx="54.432188"
     inkscape:cy="67.072331"
     inkscape:document-units="px"
     inkscape:current-layer="layer1"
     showguides="true"
     inkscape:guide-bbox="true"
     inkscape:window-width="1440"
     inkscape:window-height="880"
     inkscape:window-x="-8"
     inkscape:window-y="-8">
    <sodipodi:guide
       orientation="horizontal"
       position="2028.5714"
       id="guide17982" />
  </sodipodi:namedview>
  <metadata
     id="metadata7">
    <rdf:RDF>
      <cc:Work
         rdf:about="">
        <dc:format>image/svg+xml</dc:format>
        <dc:type
           rdf:resource="http://purl.org/dc/dcmitype/StillImage" />
      </cc:Work>
    </rdf:RDF>
  </metadata>
  <g
     inkscape:label="Layer 1"
     inkscape:groupmode="layer"
     id="layer1"
     transform="translate(-320.52213,-484.89103)">
    <g
       id="g11514"
       transform="matrix(1,0,0,-1,36.166114,101.35933)">
        <path
   id="path11516"
   d="M 0,0 L 0,0"
   style="fill:#ffffff;fill-rule:nonzero;stroke:none" />

      </g>
    <g
       id="g11612"
       transform="matrix(1,0,0,-1,319.79311,788.99733)">
        <path
   id="path11614"
   d="M 0,0 L 44.473,0"
   style="fill:#00a8de;fill-rule:nonzero;stroke:none" />

      </g>
    <g
       id="g17769"
       transform="matrix(2.0159039,0,0,2.0159039,-244.98349,-1013.1379)">
      <g
         transform="matrix(1,0,0,-1,389.78911,804.79433)"
         id="g11522">
        <path
   style="fill:#231f20;fill-rule:nonzero;stroke:none"
   d="M 0,0 C 0,-7.996 -2.996,-13.153 -4.772,-16.708 C -4.772,-16.708 -7.349,-19.938 -7.361,-26.879 C -7.361,-33.508 -7.201,-59.723 -7.361,-65.179 C -7.793,-67.198 -7.842,-67.901 -13.131,-68.044 L -82.708,-68.044 C -88.478,-68.057 -87.676,-65.596 -87.849,-64.059 C -87.837,-60.856 -87.997,-30.786 -87.849,-26.879 C -87.59,-19.938 -90.438,-16.708 -90.438,-16.708 C -92.214,-13.153 -95.222,-7.996 -95.21,0 C -95.222,7.996 -92.214,13.166 -90.438,16.722 C -90.438,16.722 -88.885,19.99 -88.022,26.892 C -87.269,32.818 -88.922,36.972 -86.752,39.147 C -84.582,41.322 -80.427,39.668 -74.496,40.423 C -67.604,41.283 -64.324,42.845 -64.324,42.845 C -60.773,44.616 -55.607,47.612 -47.605,47.612 C -39.615,47.612 -34.449,44.616 -30.886,42.845 C -30.886,42.845 -27.619,41.283 -20.726,40.423 C -14.784,39.668 -10.641,41.322 -8.459,39.147 C -6.289,36.972 -7.941,32.818 -7.201,26.892 C -6.325,19.99 -4.772,16.722 -4.772,16.722 C -2.996,13.166 0,7.996 0,0"
   id="path11524" />

      </g>
      <g
         transform="matrix(0.97302,0,0,-1.0277,36.166114,893.35933)"
         id="g11526">
        <g
   transform="translate(363.429,86.175)"
   id="g11528">
          <path
   style="fill:none;stroke:#231f20;stroke-width:0.97600001;stroke-linecap:butt;stroke-linejoin:miter;stroke-miterlimit:4"
   d="M 0,0 C 0,-7.78 -3.079,-12.798 -4.904,-16.257 C -4.904,-16.257 -7.553,-19.4 -7.565,-26.154 C -7.565,-32.604 -7.401,-58.112 -7.565,-63.42 C -8.009,-65.385 -8.06,-66.069 -13.495,-66.208 L -85.002,-66.208 C -90.932,-66.221 -90.108,-63.826 -90.285,-62.331 C -90.273,-59.214 -90.437,-29.955 -90.285,-26.154 C -90.019,-19.4 -92.946,-16.257 -92.946,-16.257 C -94.771,-12.798 -97.863,-7.78 -97.85,0 C -97.863,7.78 -94.771,12.811 -92.946,16.271 C -92.946,16.271 -91.35,19.451 -90.463,26.166 C -89.689,31.933 -91.388,35.975 -89.158,38.091 C -86.928,40.207 -82.657,38.598 -76.562,39.332 C -69.479,40.169 -66.108,41.689 -66.108,41.689 C -62.458,43.412 -57.149,46.327 -48.925,46.327 C -40.714,46.327 -35.404,43.412 -31.743,41.689 C -31.743,41.689 -28.385,40.169 -21.301,39.332 C -15.194,38.598 -10.936,40.207 -8.694,38.091 C -6.463,35.975 -8.161,31.933 -7.401,26.166 C -6.5,19.451 -4.904,16.271 -4.904,16.271 C -3.079,12.811 0,7.78 0,0 z "
   stroke-miterlimit="4"
   id="path11530" />

        </g>

      </g>
      <g
         transform="matrix(1,0,0,-1,385.48611,804.61233)"
         id="g11532">
        <path
   style="fill:#ec1d24;fill-rule:nonzero;stroke:none"
   d="M 0,0 C 0,-7.279 -2.725,-11.967 -4.34,-15.197 C -4.34,-15.197 -5.746,-18.179 -6.535,-24.443 C -7.213,-29.835 -5.721,-33.611 -7.694,-35.591 C -9.667,-37.57 -13.44,-36.06 -18.84,-36.737 C -25.104,-37.531 -28.087,-38.938 -28.087,-38.938 C -31.318,-40.566 -36.003,-43.287 -43.277,-43.287 C -50.552,-43.287 -55.237,-40.566 -58.468,-38.938 C -58.468,-38.938 -61.451,-37.531 -67.715,-36.737 C -73.115,-36.06 -76.888,-37.57 -78.861,-35.591 C -80.846,-33.611 -79.342,-29.835 -80.02,-24.443 C -80.809,-18.179 -82.214,-15.197 -82.214,-15.197 C -83.83,-11.967 -86.554,-7.279 -86.554,0 C -86.554,7.267 -83.83,11.955 -82.214,15.198 C -82.214,15.198 -80.809,18.167 -80.02,24.431 C -79.342,29.836 -80.846,33.612 -78.861,35.579 C -76.888,37.558 -73.115,36.061 -67.715,36.738 C -61.451,37.519 -58.468,38.939 -58.468,38.939 C -55.237,40.554 -50.552,43.275 -43.277,43.275 C -36.003,43.275 -31.318,40.554 -28.087,38.939 C -28.087,38.939 -25.104,37.519 -18.84,36.738 C -13.44,36.061 -9.667,37.558 -7.694,35.579 C -5.721,33.612 -7.213,29.836 -6.535,24.431 C -5.746,18.167 -4.34,15.198 -4.34,15.198 C -2.725,11.955 0,7.267 0,0"
   id="path11534" />

      </g>
      <g
         transform="matrix(0.97302,0,0,-1.0277,36.166114,893.35933)"
         id="g11536">
        <g
   transform="translate(359.007,86.352)"
   id="g11538">
          <path
   style="fill:none;stroke:#fcb217;stroke-width:0.88700002;stroke-linecap:butt;stroke-linejoin:miter;stroke-miterlimit:4"
   d="M 0,0 C 0,-7.083 -2.801,-11.644 -4.46,-14.787 C -4.46,-14.787 -5.905,-17.689 -6.716,-23.784 C -7.413,-29.03 -5.88,-32.704 -7.907,-34.631 C -9.935,-36.556 -13.813,-35.087 -19.362,-35.746 C -25.8,-36.518 -28.866,-37.887 -28.866,-37.887 C -32.187,-39.471 -37.001,-42.119 -44.477,-42.119 C -51.954,-42.119 -56.769,-39.471 -60.089,-37.887 C -60.089,-37.887 -63.155,-36.518 -69.593,-35.746 C -75.143,-35.087 -79.02,-36.556 -81.048,-34.631 C -83.088,-32.704 -81.542,-29.03 -82.239,-23.784 C -83.05,-17.689 -84.494,-14.787 -84.494,-14.787 C -86.155,-11.644 -88.954,-7.083 -88.954,0 C -88.954,7.071 -86.155,11.632 -84.494,14.788 C -84.494,14.788 -83.05,17.677 -82.239,23.772 C -81.542,29.031 -83.088,32.705 -81.048,34.619 C -79.02,36.545 -75.143,35.088 -69.593,35.747 C -63.155,36.507 -60.089,37.888 -60.089,37.888 C -56.769,39.46 -51.954,42.107 -44.477,42.107 C -37.001,42.107 -32.187,39.46 -28.866,37.888 C -28.866,37.888 -25.8,36.507 -19.362,35.747 C -13.813,35.088 -9.935,36.545 -7.907,34.619 C -5.88,32.705 -7.413,29.031 -6.716,23.772 C -5.905,17.677 -4.46,14.788 -4.46,14.788 C -2.801,11.632 0,7.071 0,0 z "
   stroke-miterlimit="4"
   id="path11540" />

        </g>

      </g>
      <g
         transform="matrix(1,0,0,-1,369.79011,804.80733)"
         id="g11542">
        <path
   style="fill:#232e65;fill-rule:nonzero;stroke:none"
   d="M 0,0 C 0,0.091 0,0.169 0,0.261 L -0.012,0.261 C -0.284,15.315 -12.564,27.426 -27.68,27.426 C -42.796,27.426 -55.076,15.315 -55.348,0.261 L -55.36,0.261 C -55.36,0.169 -55.36,0.091 -55.36,0 C -55.36,-0.091 -55.36,-0.169 -55.36,-0.26 L -55.348,-0.26 C -55.076,-15.302 -42.796,-27.426 -27.68,-27.426 C -12.564,-27.426 -0.284,-15.302 -0.012,-0.26 L 0,-0.26 C 0,-0.169 0,-0.091 0,0"
   id="path11544" />

      </g>
      <g
         transform="matrix(1,0,0,-1,332.35711,775.66233)"
         id="g11546">
        <path
   style="fill:#ffffff;fill-rule:nonzero;stroke:none"
   d="M 0,0 L -1.948,7.293 L 1.837,8.309 L 2.146,7.189 L -0.123,6.577 L 0.382,4.715 L 2.54,5.288 L 2.836,4.168 L 0.678,3.595 L 1.529,0.404"
   id="path11548" />

      </g>
      <g
         transform="matrix(1,0,0,-1,337.65911,774.46433)"
         id="g11550">
        <path
   style="fill:#ffffff;fill-rule:nonzero;stroke:none"
   d="M 0,0 L -0.9,7.515 L 0.666,7.697 L 1.566,0.196"
   id="path11552" />

      </g>
      <g
         transform="matrix(1,0,0,-1,342.86211,774.12533)"
         id="g11554">
        <path
   style="fill:#ffffff;fill-rule:nonzero;stroke:none"
   d="M 0,0 L -1.578,0.052 L -1.295,7.605 L 1.615,7.501 C 2.7,7.449 3.366,6.733 3.317,5.457 C 3.28,4.493 2.873,3.777 1.849,3.659 L 1.849,3.633 C 2.182,3.581 3.206,3.451 3.156,2.097 C 3.144,1.615 3.119,0.195 3.255,-0.13 L 1.702,-0.065 C 1.517,0.404 1.578,0.912 1.591,1.406 C 1.628,2.305 1.739,3.06 0.53,3.112 L 0.111,3.125 L 0,0 M 0.16,4.285 L 0.863,4.258 C 1.492,4.232 1.689,4.858 1.714,5.339 C 1.739,6.056 1.443,6.342 0.937,6.355 L 0.247,6.381"
   id="path11556" />

      </g>
      <g
         transform="matrix(1,0,0,-1,347.78211,774.52933)"
         id="g11558">
        <path
   style="fill:#ffffff;fill-rule:nonzero;stroke:none"
   d="M 0,0 L 1.726,7.345 L 5.733,6.408 L 5.474,5.275 L 2.996,5.861 L 2.576,4.037 L 4.857,3.503 L 4.586,2.383 L 2.305,2.917 L 1.8,0.769 L 4.352,0.17 L 4.093,-0.963"
   id="path11560" />

      </g>
      <g
         transform="matrix(1,0,0,-1,318.96711,836.06233)"
         id="g11562">
        <path
   style="fill:#ffffff;fill-rule:nonzero;stroke:none"
   d="M 0,0 C -1.603,1.12 -1.257,2.266 -0.444,3.295 L 0.863,2.397 C 0.444,1.81 0.136,1.29 0.851,0.795 C 1.283,0.495 1.689,0.625 1.985,1.055 C 2.762,2.175 0.198,4.05 1.467,5.9 C 2.146,6.863 3.144,7.319 4.722,6.225 C 5.992,5.353 6.227,4.35 5.24,3.113 L 3.983,3.985 C 4.303,4.454 4.55,4.975 4.02,5.34 C 3.601,5.626 3.194,5.574 2.898,5.144 C 2.084,3.959 4.759,2.253 3.416,0.3 C 2.306,-1.302 0.999,-0.677 0,0"
   id="path11564" />

      </g>
      <g
         transform="matrix(1,0,0,-1,323.83711,838.88833)"
         id="g11566">
        <path
   style="fill:#ffffff;fill-rule:nonzero;stroke:none"
   d="M 0,0 L 3.107,6.889 L 6.856,5.196 L 6.387,4.142 L 4.069,5.183 L 3.305,3.477 L 5.438,2.514 L 4.957,1.459 L 2.824,2.423 L 1.912,0.417 L 4.316,-0.664 L 3.835,-1.719"
   id="path11568" />

      </g>
      <g
         transform="matrix(1,0,0,-1,331.91311,841.92233)"
         id="g11570">
        <path
   style="fill:#ffffff;fill-rule:nonzero;stroke:none"
   d="M 0,0 L -1.529,0.378 L 0.259,7.71 L 3.095,7.019 C 4.143,6.759 4.649,5.925 4.34,4.675 C 4.118,3.738 3.576,3.126 2.54,3.204 L 2.54,3.191 C 2.861,3.06 3.835,2.748 3.514,1.42 C 3.403,0.951 3.095,-0.443 3.157,-0.781 L 1.652,-0.404 C 1.566,0.091 1.727,0.573 1.85,1.055 C 2.059,1.927 2.318,2.657 1.147,2.943 L 0.74,3.034 L 0,0 M 1.024,4.167 L 1.702,3.998 C 2.318,3.842 2.639,4.415 2.75,4.884 C 2.922,5.587 2.688,5.925 2.207,6.043 L 1.517,6.199"
   id="path11572" />

      </g>
      <g
         transform="matrix(1,0,0,-1,337.74511,835.51533)"
         id="g11574">
        <path
   style="fill:#ffffff;fill-rule:nonzero;stroke:none"
   d="M 0,0 L 1.64,-0.091 L 2.528,-5.639 L 2.552,-5.639 L 4.143,-0.221 L 5.709,-0.299 L 3.329,-7.735 L 1.468,-7.644"
   id="path11576" />

      </g>
      <g
         transform="matrix(1,0,0,-1,345.45111,843.15933)"
         id="g11578">
        <path
   style="fill:#ffffff;fill-rule:nonzero;stroke:none"
   d="M 0,0 L -0.715,7.527 L 0.851,7.67 L 1.578,0.156"
   id="path11580" />

      </g>
      <g
         transform="matrix(1,0,0,-1,349.05211,838.95333)"
         id="g11582">
        <path
   style="fill:#ffffff;fill-rule:nonzero;stroke:none"
   d="M 0,0 C -0.481,1.941 -0.95,3.79 1.578,4.415 C 3.144,4.806 3.994,4.102 4.327,2.514 L 2.823,2.136 C 2.576,3.113 2.317,3.438 1.861,3.321 C 0.998,3.113 1.085,2.266 1.553,0.391 C 2.022,-1.484 2.342,-2.279 3.205,-2.057 C 3.908,-1.875 3.649,-0.976 3.526,-0.39 L 5.042,-0.013 C 5.523,-1.966 4.907,-2.8 3.476,-3.151 C 0.949,-3.789 0.48,-1.914 0,0"
   id="path11584" />

      </g>
      <g
         transform="matrix(1,0,0,-1,357.39911,840.43733)"
         id="g11586">
        <path
   style="fill:#ffffff;fill-rule:nonzero;stroke:none"
   d="M 0,0 L -3.132,6.876 L 0.616,8.582 L 1.109,7.527 L -1.209,6.472 L -0.444,4.779 L 1.689,5.743 L 2.17,4.688 L 0.037,3.724 L 0.949,1.719 L 3.341,2.8 L 3.822,1.745"
   id="path11588" />

      </g>
      <g
         transform="matrix(1,0,0,-1,365.48711,836.19233)"
         id="g11590">
        <path
   style="fill:#ffffff;fill-rule:nonzero;stroke:none"
   d="M 0,0 C -1.603,-1.12 -2.565,-0.378 -3.243,0.729 L -1.936,1.641 C -1.529,1.042 -1.159,0.573 -0.444,1.068 C -0.012,1.368 0.012,1.797 -0.284,2.227 C -1.06,3.334 -3.711,1.589 -5.006,3.438 C -5.684,4.402 -5.758,5.496 -4.18,6.603 C -2.91,7.475 -1.887,7.345 -1.073,5.991 L -2.33,5.118 C -2.663,5.574 -3.07,5.991 -3.588,5.626 C -4.007,5.339 -4.094,4.936 -3.798,4.506 C -2.984,3.334 -0.444,5.248 0.912,3.295 C 2.034,1.693 0.986,0.69 0,0"
   id="path11592" />

      </g>
      <g
         transform="matrix(0.97302,0,0,-1.0277,36.166114,893.35933)"
         id="g11594">
        <g
   transform="translate(286.461,88.811)"
   id="g11596">
          <path
   style="fill:none;stroke:#00a8de;stroke-width:0.266;stroke-linecap:butt;stroke-linejoin:miter;stroke-miterlimit:4"
   d="M 0,0 L 55.121,0"
   stroke-miterlimit="4"
   id="path11598" />

        </g>

      </g>
      <g
         transform="matrix(0.97302,0,0,-1.0277,36.166114,893.35933)"
         id="g11600">
        <g
   transform="translate(287.602,92.777)"
   id="g11602">
          <path
   style="fill:none;stroke:#00a8de;stroke-width:0.56999999;stroke-linecap:butt;stroke-linejoin:miter;stroke-miterlimit:4"
   d="M 0,0 L 53.664,0"
   stroke-miterlimit="4"
   id="path11604" />

        </g>

      </g>
      <g
         transform="matrix(0.97302,0,0,-1.0277,36.166114,893.35933)"
         id="g11606">
        <g
   transform="translate(288.35,97.161)"
   id="g11608">
          <path
   style="fill:none;stroke:#00a8de;stroke-width:0.87400001;stroke-linecap:butt;stroke-linejoin:miter;stroke-miterlimit:4"
   d="M 0,0 L 52.193,0"
   stroke-miterlimit="4"
   id="path11610" />

        </g>

      </g>
      <g
         transform="matrix(0.97302,0,0,-1.0277,36.166114,893.35933)"
         id="g11616">
        <g
   transform="translate(291.492,101.546)"
   id="g11618">
          <path
   style="fill:none;stroke:#00a8de;stroke-width:1.17799997;stroke-linecap:butt;stroke-linejoin:miter;stroke-miterlimit:4"
   d="M 0,0 L 45.706,0"
   stroke-miterlimit="4"
   id="path11620" />

        </g>

      </g>
      <g
         transform="matrix(1,0,0,-1,322.90011,785.98933)"
         id="g11622">
        <path
   style="fill:#00a8de;fill-rule:nonzero;stroke:none"
   d="M 0,0 L 38.272,0 L 36.299,2.982 L 2.294,2.982"
   id="path11624" />

      </g>
      <g
         transform="matrix(1,0,0,-1,327.31411,781.49633)"
         id="g11626">
        <path
   style="fill:#00a8de;fill-rule:nonzero;stroke:none"
   d="M 0,0 L 28.457,0 L 21.75,3.295 L 7.854,3.295"
   id="path11628" />

      </g>
      <g
         transform="matrix(1,0,0,-1,331.49411,856.11733)"
         id="g11630">
        <path
   style="fill:#ffffff;fill-rule:nonzero;stroke:none"
   d="M 0,0 C 0,1.758 1.603,2.409 3.366,2.409 C 5.129,2.409 6.732,1.758 6.732,0 L 6.732,-8.829 C 6.732,-10.6 5.129,-11.252 3.366,-11.252 C 1.603,-11.252 0,-10.6 0,-8.829 L 0,0 M 3.872,-0.338 C 3.872,0.026 3.81,0.534 3.366,0.534 C 2.922,0.534 2.861,0.026 2.861,-0.338 L 2.861,-8.413 C 2.861,-8.777 2.922,-9.285 3.366,-9.285 C 3.81,-9.285 3.872,-8.777 3.872,-8.413"
   id="path11632" />

      </g>
      <g
         transform="matrix(0.97302,0,0,-1.0277,36.166114,893.35933)"
         id="g11634">
        <g
   transform="translate(303.517,36.237)"
   id="g11636">
          <path
   style="fill:none;stroke:#000000;stroke-width:0.089;stroke-linecap:butt;stroke-linejoin:miter;stroke-miterlimit:4"
   d="M 0,0 C 0,1.711 1.647,2.344 3.459,2.344 C 5.271,2.344 6.919,1.711 6.919,0 L 6.919,-8.591 C 6.919,-10.314 5.271,-10.948 3.459,-10.948 C 1.647,-10.948 0,-10.314 0,-8.591 L 0,0"
   stroke-miterlimit="4"
   id="path11638" />

          <g
   transform="translate(3.979,-0.329)"
   id="g11640">
            <path
   style="fill:none;stroke:#000000;stroke-width:0.089;stroke-linecap:butt;stroke-linejoin:miter;stroke-miterlimit:4"
   d="M 0,0 C 0,0.354 -0.064,0.848 -0.52,0.848 C -0.976,0.848 -1.039,0.354 -1.039,0 L -1.039,-7.857 C -1.039,-8.211 -0.976,-8.706 -0.52,-8.706 C -0.064,-8.706 0,-8.211 0,-7.857 L 0,0 z "
   stroke-miterlimit="4"
   id="path11642" />

          </g>

        </g>

      </g>
      <g
         transform="matrix(1,0,0,-1,339.08911,867.10833)"
         id="g11644">
        <path
   style="fill:#ffffff;fill-rule:nonzero;stroke:none"
   d="M 0,0 L 0,13.14 L 3.366,13.14 C 5.129,13.14 6.732,12.489 6.732,10.47 L 6.732,9.389 C 6.732,8.4 6.239,7.319 4.525,7.227 L 4.525,7.188 C 6.325,7.097 6.732,6.472 6.732,4.962 L 6.732,2.344 C 6.732,1.055 6.991,0.521 7.151,0 L 4.254,0 C 4.057,0.364 3.872,0.794 3.872,1.706 L 3.872,4.714 C 3.872,5.535 3.872,6.186 2.861,6.186 L 2.861,0 L 0,0 M 2.811,7.709 L 3.144,7.709 C 3.613,7.709 3.81,7.918 3.81,8.543 L 3.81,10.496 C 3.81,11.134 3.613,11.343 3.144,11.343 L 2.811,11.343"
   id="path11646" />

      </g>
      <g
         transform="matrix(0.97302,0,0,-1.0277,36.166114,893.35933)"
         id="g11648">
        <g
   transform="translate(311.323,25.542)"
   id="g11650">
          <path
   style="fill:none;stroke:#000000;stroke-width:0.089;stroke-linecap:butt;stroke-linejoin:miter;stroke-miterlimit:4"
   d="M 0,0 L 0,12.786 L 3.459,12.786 C 5.271,12.786 6.919,12.152 6.919,10.188 L 6.919,9.136 C 6.919,8.173 6.412,7.122 4.651,7.032 L 4.651,6.994 C 6.5,6.906 6.919,6.297 6.919,4.828 L 6.919,2.281 C 6.919,1.027 7.185,0.507 7.349,0 L 4.372,0 C 4.17,0.354 3.979,0.773 3.979,1.66 L 3.979,4.587 C 3.979,5.386 3.979,6.019 2.94,6.019 L 2.94,0 L 0,0"
   stroke-miterlimit="4"
   id="path11652" />

          <g
   transform="translate(2.889,7.501)"
   id="g11654">
            <path
   style="fill:none;stroke:#000000;stroke-width:0.089;stroke-linecap:butt;stroke-linejoin:miter;stroke-miterlimit:4"
   d="M 0,0 L 0.342,0 C 0.824,0 1.027,0.203 1.027,0.812 L 1.027,2.712 C 1.027,3.333 0.824,3.536 0.342,3.536 L 0,3.536 L 0,0 z "
   stroke-miterlimit="4"
   id="path11656" />

          </g>

        </g>

      </g>
      <g
         transform="matrix(1,0,0,-1,346.58611,856.11733)"
         id="g11658">
        <path
   style="fill:#ffffff;fill-rule:nonzero;stroke:none"
   d="M 0,0 C 0,1.758 1.602,2.409 3.366,2.409 C 5.129,2.409 6.732,1.758 6.732,0 L 6.732,-8.829 C 6.732,-10.6 5.129,-11.252 3.366,-11.252 C 1.602,-11.252 0,-10.6 0,-8.829 L 0,0 M 3.871,-0.338 C 3.871,0.026 3.809,0.534 3.366,0.534 C 2.922,0.534 2.86,0.026 2.86,-0.338 L 2.86,-8.413 C 2.86,-8.777 2.922,-9.285 3.366,-9.285 C 3.809,-9.285 3.871,-8.777 3.871,-8.413"
   id="path11660" />

      </g>
      <g
         transform="matrix(0.97302,0,0,-1.0277,36.166114,893.35933)"
         id="g11662">
        <g
   transform="translate(319.028,36.237)"
   id="g11664">
          <path
   style="fill:none;stroke:#000000;stroke-width:0.089;stroke-linecap:butt;stroke-linejoin:miter;stroke-miterlimit:4"
   d="M 0,0 C 0,1.711 1.646,2.344 3.459,2.344 C 5.271,2.344 6.919,1.711 6.919,0 L 6.919,-8.591 C 6.919,-10.314 5.271,-10.948 3.459,-10.948 C 1.646,-10.948 0,-10.314 0,-8.591 L 0,0"
   stroke-miterlimit="4"
   id="path11666" />

          <g
   transform="translate(3.978,-0.329)"
   id="g11668">
            <path
   style="fill:none;stroke:#000000;stroke-width:0.089;stroke-linecap:butt;stroke-linejoin:miter;stroke-miterlimit:4"
   d="M 0,0 C 0,0.354 -0.064,0.848 -0.519,0.848 C -0.975,0.848 -1.039,0.354 -1.039,0 L -1.039,-7.857 C -1.039,-8.211 -0.975,-8.706 -0.519,-8.706 C -0.064,-8.706 0,-8.211 0,-7.857 L 0,0 z "
   stroke-miterlimit="4"
   id="path11670" />

          </g>

        </g>

      </g>
      <g
         transform="matrix(1,0,0,-1,354.15611,867.10833)"
         id="g11672">
        <path
   style="fill:#ffffff;fill-rule:nonzero;stroke:none"
   d="M 0,0 L 0,13.14 L 3.773,13.14 L 5.067,4.779 L 5.08,4.467 L 5.129,4.467 L 5.129,13.14 L 7.398,13.14 L 7.398,0 L 3.884,0 L 2.318,10.027 L 2.306,10.405 L 2.269,10.405 L 2.269,0"
   id="path11674" />

      </g>
      <g
         transform="matrix(0.97302,0,0,-1.0277,36.166114,893.35933)"
         id="g11676">
        <g
   transform="translate(326.808,25.542)"
   id="g11678">
          <path
   style="fill:none;stroke:#000000;stroke-width:0.089;stroke-linecap:butt;stroke-linejoin:miter;stroke-miterlimit:4"
   d="M 0,0 L 0,12.786 L 3.878,12.786 L 5.207,4.65 L 5.221,4.346 L 5.271,4.346 L 5.271,12.786 L 7.603,12.786 L 7.603,0 L 3.992,0 L 2.382,9.757 L 2.37,10.124 L 2.332,10.124 L 2.332,0 L 0,0 z "
   stroke-miterlimit="4"
   id="path11680" />

        </g>

      </g>
      <g
         transform="matrix(1,0,0,-1,367.23811,856.11733)"
         id="g11682">
        <path
   style="fill:#ffffff;fill-rule:nonzero;stroke:none"
   d="M 0,0 C 0,1.758 1.603,2.409 3.366,2.409 C 5.129,2.409 6.732,1.758 6.732,0 L 6.732,-8.829 C 6.732,-10.6 5.129,-11.252 3.366,-11.252 C 1.603,-11.252 0,-10.6 0,-8.829 L 0,0 M 3.871,-0.338 C 3.871,0.026 3.81,0.534 3.366,0.534 C 2.922,0.534 2.86,0.026 2.86,-0.338 L 2.86,-8.413 C 2.86,-8.777 2.922,-9.285 3.366,-9.285 C 3.81,-9.285 3.871,-8.777 3.871,-8.413"
   id="path11684" />

      </g>
      <g
         transform="matrix(0.97302,0,0,-1.0277,36.166114,893.35933)"
         id="g11686">
        <g
   transform="translate(340.253,36.237)"
   id="g11688">
          <path
   style="fill:none;stroke:#000000;stroke-width:0.089;stroke-linecap:butt;stroke-linejoin:miter;stroke-miterlimit:4"
   d="M 0,0 C 0,1.711 1.647,2.344 3.459,2.344 C 5.271,2.344 6.919,1.711 6.919,0 L 6.919,-8.591 C 6.919,-10.314 5.271,-10.948 3.459,-10.948 C 1.647,-10.948 0,-10.314 0,-8.591 L 0,0"
   stroke-miterlimit="4"
   id="path11690" />

          <g
   transform="translate(3.978,-0.329)"
   id="g11692">
            <path
   style="fill:none;stroke:#000000;stroke-width:0.089;stroke-linecap:butt;stroke-linejoin:miter;stroke-miterlimit:4"
   d="M 0,0 C 0,0.354 -0.063,0.848 -0.519,0.848 C -0.975,0.848 -1.039,0.354 -1.039,0 L -1.039,-7.857 C -1.039,-8.211 -0.975,-8.706 -0.519,-8.706 C -0.063,-8.706 0,-8.211 0,-7.857 L 0,0 z "
   stroke-miterlimit="4"
   id="path11694" />

          </g>

        </g>

      </g>
      <g
         transform="matrix(1,0,0,-1,366.96611,853.98133)"
         id="g11696">
        <path
   style="fill:#ffffff;fill-rule:nonzero;stroke:none"
   d="M 0,0 L -5.042,0 L -5.042,-1.967 L -3.957,-1.967 L -3.957,-13.127 L -1.097,-13.127 L -1.097,-1.967 L 0,-1.967"
   id="path11698" />

      </g>
      <g
         transform="matrix(0.97302,0,0,-1.0277,36.166114,893.35933)"
         id="g11700">
        <g
   transform="translate(339.973,38.315)"
   id="g11702">
          <path
   style="fill:none;stroke:#000000;stroke-width:0.089;stroke-linecap:butt;stroke-linejoin:miter;stroke-miterlimit:4"
   d="M 0,0 L -5.182,0 L -5.182,-1.914 L -4.067,-1.914 L -4.067,-12.773 L -1.127,-12.773 L -1.127,-1.914 L 0,-1.914 L 0,0 z "
   stroke-miterlimit="4"
   id="path11704" />

        </g>

      </g>
      <g
         transform="matrix(1,0,0,-1,332.73911,850.73833)"
         id="g11706">
        <path
   style="fill:#ffffff;fill-rule:nonzero;stroke:none"
   d="M 0,0 L -7.151,0 L -7.151,-2.123 L -5.042,-2.123 L -5.042,-16.37 L -2.12,-16.37 L -2.12,-2.123 L 0,-2.123"
   id="path11708" />

      </g>
      <g
         transform="matrix(0.97302,0,0,-1.0277,36.166114,893.35933)"
         id="g11710">
        <g
   transform="translate(304.797,41.471)"
   id="g11712">
          <path
   style="fill:none;stroke:#000000;stroke-width:0.089;stroke-linecap:butt;stroke-linejoin:miter;stroke-miterlimit:4"
   d="M 0,0 L -7.349,0 L -7.349,-2.066 L -5.182,-2.066 L -5.182,-15.928 L -2.179,-15.928 L -2.179,-2.066 L 0,-2.066 L 0,0 z "
   stroke-miterlimit="4"
   id="path11714" />

        </g>

      </g>
      <g
         transform="matrix(1,0,0,-1,325.35411,867.60333)"
         id="g11716">
        <path
   style="fill:#ffffff;fill-rule:nonzero;stroke:none"
   d="M 0,0 L 0,0.091 C -1.96,0.951 -3.391,1.172 -5.992,1.185 L -16.583,1.185 L -16.583,0.469 C -16.583,0.469 -2.293,0.469 -2.281,0.469 C -1.307,0.417 -0.592,0.195 0,0"
   id="path11718" />

      </g>
      <g
         transform="matrix(1,0,0,-1,321.13711,847.75633)"
         id="g11720">
        <path
   style="fill:#ffffff;fill-rule:nonzero;stroke:none"
   d="M 0,0 L -0.431,0.364 C -0.616,0.443 -0.838,0.312 -0.838,0.312 L -1.43,0.039 L -1.43,-3.1 C -2.009,-4.246 -3.415,-4.897 -3.501,-4.962 L -3.501,-4.949 C -3.723,-5.066 -3.785,-5.235 -3.785,-5.444 L -3.785,-17.073 C -4.216,-17.099 -4.895,-17.164 -4.895,-17.164 L -4.895,-7.332 C -4.895,-6.967 -5.055,-6.863 -5.412,-6.785 C -5.906,-6.668 -6.596,-6.551 -9.124,-5.522 L -9.124,-3.49 L -9.666,-3.23 C -9.666,-3.23 -9.937,-3.1 -10.122,-3.178 C -10.357,-3.269 -10.69,-3.49 -10.801,-3.555 C -11.405,-3.972 -12.379,-4.754 -12.379,-6.225 L -12.379,-18.258 L -11.306,-18.258 L -11.306,-6.225 C -11.306,-5.17 -10.677,-4.675 -10.283,-4.415 L -10.196,-4.428 L -10.196,-18.258 L -9.124,-18.258 L -9.124,-6.655 C -8.273,-6.98 -7.767,-7.189 -6.843,-7.475 C -6.522,-7.566 -6.202,-7.632 -5.967,-7.71 L -5.967,-17.321 C -7.102,-17.529 -8.076,-17.868 -8.951,-18.258 L -6.88,-18.258 C -5.363,-17.555 -3.588,-17.19 -1.738,-17.164 C -2.059,-17.125 -2.392,-17.099 -2.712,-17.086 L -2.712,-5.743 C -2.688,-5.73 -2.638,-5.704 -2.614,-5.678 C -2.318,-5.509 -1.862,-5.235 -1.43,-4.78 L -1.43,-18.258 C -1.22,-18.271 -0.727,-18.245 -0.32,-18.284 L -0.32,-1.237 L -0.271,-1.211 C 0.247,-1.888 0.74,-2.891 0.777,-4.259 L 0.777,-18.362 C 1.11,-18.401 1.517,-18.441 1.85,-18.532 L 1.85,-4.259 C 1.788,-2.019 0.617,-0.703 0,0"
   id="path11722" />

      </g>
      <g
         transform="matrix(1,0,0,-1,341.85111,796.82433)"
         id="g11724">
        <path
   style="fill:#ffffff;fill-rule:nonzero;stroke:none"
   d="M 0,0 C 1.245,0 1.159,0.495 1.159,1.12 C 1.159,1.745 1.245,2.253 0,2.253 C -1.233,2.253 -1.147,1.745 -1.147,1.12 C -1.147,0.495 -1.233,0 0,0"
   id="path11726" />

      </g>
      <g
         transform="matrix(1,0,0,-1,366.85611,810.95433)"
         id="g11728">
        <path
   style="fill:#ffffff;fill-rule:nonzero;stroke:none"
   d="M 0,0 L -0.025,0.964 L -1.739,0.977 L -1.739,0 L -4.217,-0.013 L -4.217,-4.44 L -5.426,-4.453 L -5.438,6.889 L -11.122,6.889 L -11.134,-4.479 L -12.182,-4.453 L -12.182,2.188 L -15.277,2.201 L -15.277,-4.453 L -16.547,-4.453 L -16.547,5.014 L -21.084,5.014 L -21.084,-4.519 L -23.624,-4.453 L -24.573,14.469 C -23.34,14.534 -23.427,14.859 -23.427,15.263 C -23.427,15.667 -23.328,15.992 -24.647,16.045 L -24.66,16.37 L -24.647,16.37 L -24.697,19.235 C -24.388,19.287 -24.401,19.417 -24.401,19.574 C -24.401,19.756 -24.376,19.899 -24.808,19.938 L -25.054,24.64 L -25.215,19.925 C -25.584,19.886 -25.56,19.743 -25.56,19.574 C -25.56,19.43 -25.584,19.3 -25.313,19.248 L -25.313,17.959 L -25.338,17.959 C -25.338,17.959 -25.363,17.23 -25.412,16.045 C -26.669,15.992 -26.571,15.654 -26.571,15.263 C -26.571,14.859 -26.669,14.547 -25.474,14.482 C -25.72,8.426 -26.238,-3.373 -26.448,-3.138 C -29.234,-0.182 -34.129,0.065 -37.039,-3.138 L -40.318,-3.138 L -40.318,-2.396 L -41.724,-2.396 L -41.724,-1.211 L -43.228,-1.172 L -43.314,-0.286 L -46.964,-0.273 L -46.964,-2.8 L -51.847,-2.8 L -50.046,-7.006 L 0.283,-7.006 L 2.749,-0.026"
   id="path11730" />

      </g>
      <g
         transform="matrix(1,0,0,-1,338.55911,815.52533)"
         id="g11732">
        <path
   style="fill:#232e65;fill-rule:nonzero;stroke:none"
   d="M 0,0 L -1.751,-0.052 C -2.38,1.133 -4.303,2.957 -7.053,1.238 L -6.559,1.498 C -3.748,3.373 -1.566,2.878 -0.062,0.495"
   id="path11734" />

      </g>
      <g
         transform="matrix(0.97302,0,0,-1.0277,36.166114,893.35933)"
         id="g11736">
        <g
   transform="translate(278.427,121.11)"
   id="g11738">
          <path
   style="fill:none;stroke:#fcb217;stroke-width:0.88700002;stroke-linecap:butt;stroke-linejoin:miter;stroke-miterlimit:4"
   d="M 0,0 L 15.815,-16.384"
   stroke-miterlimit="4"
   id="path11740" />

          <g
   transform="translate(72.672,-0.139)"
   id="g11742">
            <path
   style="fill:none;stroke:#fcb217;stroke-width:0.88700002;stroke-linecap:butt;stroke-linejoin:miter;stroke-miterlimit:4"
   d="M 0,0 L -15.827,-16.714"
   stroke-miterlimit="4"
   id="path11744" />

            <g
   transform="translate(-72.672,-69.605)"
   id="g11746">
              <path
   style="fill:none;stroke:#fcb217;stroke-width:0.88700002;stroke-linecap:butt;stroke-linejoin:miter;stroke-miterlimit:4"
   d="M 0,0 L 15.815,16.372"
   stroke-miterlimit="4"
   id="path11748" />

              <g
   transform="translate(72.672,0.127)"
   id="g11750">
                <path
   style="fill:none;stroke:#fcb217;stroke-width:0.88700002;stroke-linecap:butt;stroke-linejoin:miter;stroke-miterlimit:4"
   d="M 0,0 L -15.827,16.714"
   stroke-miterlimit="4"
   id="path11752" />

              </g>

            </g>

          </g>

        </g>

      </g>
      <g
         transform="matrix(1,0,0,-1,375.25211,816.94433)"
         id="g11754">
        <path
   style="fill:#232e65;fill-rule:nonzero;stroke:none"
   d="M 0,0 C 0,-0.208 0.197,-0.391 0.444,-0.391 C 0.678,-0.391 0.875,-0.208 0.875,0 L 1.738,26.111 C 1.738,26.944 1.393,27.608 0.444,27.608 C -0.506,27.608 -0.937,26.944 -0.937,26.111"
   id="path11756" />

      </g>
      <g
         transform="matrix(1,0,0,-1,375.28911,813.88433)"
         id="g11758">
        <path
   style="fill:#ffffff;fill-rule:nonzero;stroke:none"
   d="M 0,0 L -0.099,2.774 C -0.099,2.774 -0.197,3.621 1.159,4.35 C 1.159,4.35 2.996,5.079 2.7,6.629 C 2.7,6.629 2.638,7.775 1.036,8.361 C 1.036,8.361 1.073,6.863 1.011,6.082 C 1.011,6.082 0.321,5.756 -0.358,5.092 C -0.358,5.092 -1.541,4.154 -1.628,2.956 C -1.628,2.956 -1.615,1.003 0,0"
   id="path11760" />

      </g>
      <g
         transform="matrix(0.97302,0,0,-1.0277,36.166114,893.35933)"
         id="g11762">
        <g
   transform="translate(348.527,77.33)"
   id="g11764">
          <path
   style="fill:none;stroke:#232e65;stroke-width:0.152;stroke-linecap:butt;stroke-linejoin:miter;stroke-miterlimit:4"
   d="M 0,0 L -0.102,2.699 C -0.102,2.699 -0.202,3.523 1.191,4.233 C 1.191,4.233 3.079,4.942 2.775,6.45 C 2.775,6.45 2.711,7.565 1.065,8.135 C 1.065,8.135 1.103,6.678 1.039,5.918 C 1.039,5.918 0.33,5.601 -0.368,4.955 C -0.368,4.955 -1.584,4.042 -1.673,2.876 C -1.673,2.876 -1.66,0.976 0,0 z "
   stroke-miterlimit="4"
   id="path11766" />

        </g>

      </g>
      <g
         transform="matrix(1,0,0,-1,375.06711,807.25533)"
         id="g11768">
        <path
   style="fill:#ffffff;fill-rule:nonzero;stroke:none"
   d="M 0,0 C 0,0 -0.136,2.5 -0.123,3.151 C -0.123,3.151 0,4.141 1.443,4.988 C 1.443,4.988 3.748,5.938 3.267,7.54 C 3.267,7.54 3.181,8.868 1.554,9.715 C 1.554,9.715 1.517,8.074 1.504,7.215 C 1.504,7.215 0.986,6.615 -0.185,5.821 C -0.185,5.821 -1.911,4.662 -2.01,3.269 C -2.01,3.269 -2.404,0.482 0,0"
   id="path11770" />

      </g>
      <g
         transform="matrix(0.97302,0,0,-1.0277,36.166114,893.35933)"
         id="g11772">
        <g
   transform="translate(348.299,83.78)"
   id="g11774">
          <path
   style="fill:none;stroke:#232e65;stroke-width:0.152;stroke-linecap:butt;stroke-linejoin:miter;stroke-miterlimit:4"
   d="M 0,0 C 0,0 -0.14,2.433 -0.126,3.066 C -0.126,3.066 0,4.029 1.483,4.853 C 1.483,4.853 3.852,5.778 3.358,7.337 C 3.358,7.337 3.269,8.629 1.597,9.453 C 1.597,9.453 1.559,7.856 1.546,7.02 C 1.546,7.02 1.013,6.437 -0.19,5.664 C -0.19,5.664 -1.964,4.536 -2.066,3.181 C -2.066,3.181 -2.471,0.469 0,0 z "
   stroke-miterlimit="4"
   id="path11776" />

        </g>

      </g>
      <g
         transform="matrix(1,0,0,-1,373.99411,795.78233)"
         id="g11778">
        <path
   style="fill:#ffffff;fill-rule:nonzero;stroke:none"
   d="M 0,0 C 0.124,-0.247 0.198,-0.404 0.691,-1.003 L 0.789,-3.646 C -1.479,-2.292 -1.713,-0.43 -1.713,-0.43 C -1.713,-0.43 -2.651,1.81 0.346,3.412 C 0.346,3.412 0.851,3.672 1.702,3.607 C 1.702,3.607 2.639,3.477 3.144,2.409 C 3.144,2.409 3.712,2.005 2.355,2.045 C 2.355,2.045 1.874,1.94 1.283,2.201 L 0.937,2.474 C 0.937,2.474 -0.591,1.341 0,0"
   id="path11780" />

      </g>
      <g
         transform="matrix(0.97302,0,0,-1.0277,36.166114,893.35933)"
         id="g11782">
        <g
   transform="translate(347.196,94.944)"
   id="g11784">
          <path
   style="fill:none;stroke:#232e65;stroke-width:0.152;stroke-linecap:butt;stroke-linejoin:miter;stroke-miterlimit:4"
   d="M 0,0 C 0.127,-0.24 0.203,-0.393 0.71,-0.976 L 0.811,-3.548 C -1.52,-2.23 -1.76,-0.418 -1.76,-0.418 C -1.76,-0.418 -2.724,1.761 0.356,3.32 C 0.356,3.32 0.875,3.573 1.749,3.51 C 1.749,3.51 2.712,3.383 3.231,2.344 C 3.231,2.344 3.815,1.951 2.42,1.99 C 2.42,1.99 1.926,1.888 1.319,2.142 L 0.963,2.407 C 0.963,2.407 -0.607,1.305 0,0 z "
   stroke-miterlimit="4"
   id="path11786" />

        </g>

      </g>
      <g
         transform="matrix(1,0,0,-1,375.69611,792.83933)"
         id="g11788">
        <path
   style="fill:#0d519f;fill-rule:nonzero;stroke:none"
   d="M 0,0 C 0.123,0 0.419,-0.13 0.419,-0.026 C 0.419,0.065 0.123,0.352 0,0.352 C -0.123,0.352 -0.222,0.274 -0.222,0.169 C -0.222,0.078 -0.123,0 0,0"
   id="path11790" />

      </g>
      <g
         transform="matrix(1,0,0,-1,376.09011,813.14133)"
         id="g11792">
        <path
   style="fill:#ffffff;fill-rule:nonzero;stroke:none"
   d="M 0,0 C 0,0 0.789,-0.717 0.851,-1.277 C 0.851,-1.277 1.295,-2.618 -1.307,-3.569 C -3.908,-4.519 -1.948,-3.373 -1.565,-3.217 C -1.565,-3.217 -0.259,-2.436 -0.037,-1.654"
   id="path11794" />

      </g>
      <g
         transform="matrix(0.97302,0,0,-1.0277,36.166114,893.35933)"
         id="g11796">
        <g
   transform="translate(349.35,78.053)"
   id="g11798">
          <path
   style="fill:none;stroke:#232e65;stroke-width:0.152;stroke-linecap:butt;stroke-linejoin:miter;stroke-miterlimit:4"
   d="M 0,0 C 0,0 0.811,-0.698 0.875,-1.243 C 0.875,-1.243 1.331,-2.547 -1.343,-3.473 C -4.016,-4.397 -2.002,-3.282 -1.608,-3.13 C -1.608,-3.13 -0.266,-2.37 -0.038,-1.609 L 0,0 z "
   stroke-miterlimit="4"
   id="path11800" />

        </g>

      </g>
      <g
         transform="matrix(1,0,0,-1,313.29611,817.16633)"
         id="g11802">
        <path
   style="fill:#ffffff;fill-rule:nonzero;stroke:none"
   d="M 0,0 L -8.964,24.249 L -8.471,24.483 L 0.283,0.144"
   id="path11804" />

      </g>
      <g
         transform="matrix(1,0,0,-1,304.99711,793.55533)"
         id="g11806">
        <path
   style="fill:#ffffff;fill-rule:nonzero;stroke:none"
   d="M 0,0 C 0,0 -0.654,-1.758 -0.099,-3.23 C -0.099,-3.23 -0.037,-2.071 0.505,-1.276"
   id="path11808" />

      </g>
      <g
         transform="matrix(1,0,0,-1,313.51811,817.12633)"
         id="g11810">
        <path
   style="fill:#232e65;fill-rule:nonzero;stroke:none"
   d="M 0,0 L -8.964,24.248 L -8.471,24.482 L 0.283,0.143"
   id="path11812" />

      </g>
      <g
         transform="matrix(1,0,0,-1,305.22011,793.51633)"
         id="g11814">
        <path
   style="fill:#232e65;fill-rule:nonzero;stroke:none"
   d="M 0,0 C 0,0 -0.654,-1.758 -0.087,-3.23 C -0.087,-3.23 -0.025,-2.071 0.518,-1.276"
   id="path11816" />

      </g>
      <g
         transform="matrix(0.97302,0,0,-1.0277,36.166114,893.35933)"
         id="g11818">
        <g
   transform="translate(285.968,85.833)"
   id="g11820">
          <path
   style="fill:none;stroke:#fcb217;stroke-width:0.88700002;stroke-linecap:butt;stroke-linejoin:miter;stroke-miterlimit:4"
   d="M 0,0 C 0,-14.851 12.735,-26.889 28.448,-26.889 C 44.16,-26.889 56.908,-14.851 56.908,0 L 56.908,0.076 C 56.908,14.939 44.16,26.977 28.448,26.977 C 12.735,26.977 0,14.939 0,0.076 L 0,0 z "
   stroke-miterlimit="4"
   id="path11822" />

        </g>

      </g>
      <g
         transform="matrix(1,0,0,-1,312.54411,792.42233)"
         id="g11824">
        <path
   style="fill:#232e65;fill-rule:nonzero;stroke:none"
   d="M 0,0 L -0.753,-7.684 L -4.18,-7.319 L -3.946,-4.936 L -0.518,-5.248 L -0.469,-4.688 L -3.884,-4.311 L -3.662,-1.928 L -0.235,-2.253 L -0.185,-1.693 L -3.601,-1.315 L -3.428,0.521 L -4.032,0.521 L -6.474,-24.418 L -5.82,-24.47 L -5.672,-22.92 L -2.281,-23.246 L -2.442,-24.939 L -1.788,-24.978 L 0.604,0 L 0,0 M -0.814,-8.244 L -1.049,-10.692 L -4.451,-10.314 L -4.464,-10.353 L -4.23,-7.931 L -0.814,-8.244 M -4.735,-13.309 L -4.76,-13.388 L -4.525,-10.926 L -1.098,-11.252 L -1.344,-13.687 L -4.735,-13.309 M -1.394,-14.247 L -1.64,-16.682 L -5.019,-16.318 L -5.043,-16.435 L -4.809,-13.935 L -1.394,-14.247 M -5.586,-22.308 L -5.635,-22.517 L -5.389,-19.925 L -1.986,-20.251 L -2.22,-22.686 L -5.586,-22.308 M -1.924,-19.678 L -5.302,-19.313 L -5.339,-19.482 L -5.093,-16.93 L -1.69,-17.242"
   id="path11826" />

      </g>
      <g
         transform="matrix(1,0,0,-1,312.10011,792.24033)"
         id="g11828">
        <path
   style="fill:#ffffff;fill-rule:nonzero;stroke:none"
   d="M 0,0 L -0.752,-7.683 L -4.18,-7.306 L -3.946,-4.922 L -0.518,-5.248 L -0.469,-4.688 L -3.884,-4.31 L -3.662,-1.927 L -0.235,-2.24 L -0.198,-1.68 L -3.601,-1.302 L -3.428,0.521 L -4.032,0.521 L -6.473,-24.418 L -5.82,-24.457 L -5.672,-22.92 L -2.281,-23.233 L -2.442,-24.926 L -1.788,-24.978 L 0.604,0 L 0,0 M -0.814,-8.243 L -1.048,-10.679 L -4.464,-10.301 L -4.464,-10.34 L -4.229,-7.931 L -0.814,-8.243 M -4.735,-13.309 L -4.76,-13.387 L -4.525,-10.926 L -1.098,-11.238 L -1.344,-13.687 L -4.735,-13.309 M -1.394,-14.247 L -1.64,-16.682 L -5.019,-16.304 L -5.055,-16.435 L -4.809,-13.921 L -1.394,-14.247 M -5.586,-22.308 L -5.635,-22.516 L -5.388,-19.925 L -1.985,-20.237 L -2.22,-22.673 L -5.586,-22.308 M -1.924,-19.677 L -5.302,-19.3 L -5.339,-19.469 L -5.092,-16.93 L -1.69,-17.242"
   id="path11830" />

      </g>
      <g
         transform="matrix(1,0,0,-1,399.02411,787.48633)"
         id="g11832">
        <path
   style="fill:#fcb217;fill-rule:nonzero;stroke:none"
   d="M 0,0 L 0.258,0.052 C 0.739,0.156 1.072,0.286 1.232,0.468 C 1.405,0.638 1.454,0.885 1.38,1.198 C 1.306,1.51 1.158,1.732 0.949,1.836 C 0.727,1.953 0.443,1.979 0.073,1.888 C -0.21,1.823 -0.432,1.68 -0.592,1.445 C -0.74,1.211 -0.888,0.846 -0.999,0.338 C -1.221,-0.678 -1.505,-1.42 -1.838,-1.876 C -2.171,-2.345 -2.639,-2.644 -3.243,-2.774 C -4.156,-2.983 -4.895,-2.905 -5.45,-2.527 C -6.005,-2.162 -6.4,-1.498 -6.609,-0.547 C -6.843,0.494 -6.806,1.263 -6.498,1.797 C -6.202,2.318 -5.586,2.682 -4.661,2.891 L -4.575,2.904 L -4.316,2.969 L -3.897,1.133 L -4.168,1.08 C -4.599,0.989 -4.908,0.833 -5.093,0.612 C -5.265,0.403 -5.315,0.117 -5.241,-0.222 C -5.167,-0.56 -5.006,-0.795 -4.772,-0.912 C -4.538,-1.042 -4.23,-1.055 -3.835,-0.964 C -3.539,-0.899 -3.305,-0.73 -3.132,-0.482 C -2.972,-0.235 -2.824,0.169 -2.688,0.729 C -2.479,1.693 -2.207,2.396 -1.887,2.839 C -1.566,3.281 -1.11,3.568 -0.518,3.711 C 0.369,3.906 1.072,3.815 1.627,3.451 C 2.169,3.073 2.552,2.409 2.761,1.458 C 2.983,0.481 2.934,-0.248 2.613,-0.743 C 2.317,-1.212 1.738,-1.537 0.875,-1.719 L 0.678,-1.772 L 0.406,-1.837"
   id="path11834" />

      </g>
      <g
         transform="matrix(1,0,0,-1,393.41411,792.24033)"
         id="g11836">
        <path
   style="fill:#fcb217;fill-rule:nonzero;stroke:none"
   d="M 0,0 L 9.222,1.263 L 9.851,-3.36 L 9.173,-3.451 L 8.482,-3.542 L 8.1,-0.807 L 5.671,-1.133 L 6.029,-3.789 L 5.351,-3.881 L 4.66,-3.972 L 4.303,-1.328 L 1.627,-1.693 L 2.009,-4.48 L 1.331,-4.571 L 0.641,-4.675"
   id="path11838" />

      </g>
      <g
         transform="matrix(1,0,0,-1,402.16811,799.58533)"
         id="g11840">
        <path
   style="fill:#fcb217;fill-rule:nonzero;stroke:none"
   d="M 0,0 L 0.037,-0.521 C 0.061,-1.002 -0.013,-1.341 -0.185,-1.523 C -0.358,-1.706 -0.703,-1.823 -1.209,-1.849 C -1.751,-1.875 -2.109,-1.81 -2.306,-1.654 C -2.491,-1.497 -2.602,-1.172 -2.639,-0.677 L -2.664,-0.143 L 0,0 M -7.99,1.459 L -7.941,0.508 L -7.879,-0.442 L -4.094,-0.221 L -4.057,-0.794 C -4.032,-1.25 -4.106,-1.575 -4.291,-1.771 C -4.476,-1.966 -4.797,-2.07 -5.265,-2.096 L -6.387,-2.148 C -6.806,-2.174 -7.115,-2.201 -7.324,-2.227 C -7.522,-2.253 -7.682,-2.279 -7.78,-2.318 L -7.719,-3.268 L -7.669,-4.219 C -7.571,-4.18 -7.411,-4.141 -7.201,-4.102 C -6.991,-4.076 -6.683,-4.05 -6.289,-4.011 C -5.894,-3.985 -5.512,-3.972 -5.154,-3.972 C -4.525,-3.959 -4.045,-3.815 -3.712,-3.529 C -3.391,-3.242 -3.243,-2.839 -3.268,-2.331 L -3.28,-2.227 C -3.157,-2.656 -2.997,-2.982 -2.812,-3.19 C -2.454,-3.607 -1.776,-3.776 -0.79,-3.724 C 0.074,-3.672 0.678,-3.425 1.023,-2.982 C 1.368,-2.539 1.516,-1.81 1.454,-0.807 L 1.356,1.029 L 1.294,1.98"
   id="path11842" />

      </g>
      <g
         transform="matrix(1,0,0,-1,403.82011,804.69033)"
         id="g11844">
        <path
   style="fill:#fcb217;fill-rule:nonzero;stroke:none"
   d="M 0,0 L -0.025,-0.95 L -0.05,-1.901 L -7.299,-3.008 L -0.111,-4.427 L -0.136,-5.339 L -0.161,-6.251 L -9.408,-4.011 L -9.383,-2.904 L -9.358,-1.771"
   id="path11846" />

      </g>
      <g
         transform="matrix(1,0,0,-1,403.49911,812.52933)"
         id="g11848">
        <path
   style="fill:#fcb217;fill-rule:nonzero;stroke:none"
   d="M 0,0 L -0.086,-0.938 L -0.16,-1.889 L -9.432,-1.081 L -9.346,-0.144 L -9.272,0.807"
   id="path11850" />

      </g>
      <g
         transform="matrix(1,0,0,-1,396.22511,821.08533)"
         id="g11852">
        <path
   style="fill:#fcb217;fill-rule:nonzero;stroke:none"
   d="M 0,0 L -0.272,0.039 C -1.357,0.182 -2.096,0.507 -2.491,0.989 C -2.885,1.484 -2.996,2.226 -2.848,3.216 C -2.688,4.271 -2.331,4.987 -1.763,5.339 C -1.196,5.704 -0.309,5.782 0.9,5.599 L 3.736,5.17 C 4.956,4.974 5.795,4.623 6.226,4.128 C 6.658,3.607 6.793,2.826 6.621,1.771 C 6.485,0.859 6.152,0.221 5.622,-0.157 C 5.116,-0.508 4.438,-0.612 3.588,-0.482 L 3.415,-0.456 L 3.144,-0.404 L 3.427,1.471 L 3.699,1.419 C 4.167,1.341 4.537,1.354 4.796,1.445 C 5.042,1.549 5.19,1.732 5.24,1.992 C 5.289,2.344 5.19,2.617 4.944,2.813 C 4.697,3.021 4.266,3.164 3.662,3.255 L 0.826,3.685 C 0.024,3.815 -0.543,3.828 -0.876,3.724 C -1.209,3.633 -1.406,3.386 -1.455,3.021 C -1.505,2.721 -1.406,2.487 -1.159,2.305 C -0.913,2.122 -0.518,1.992 0.012,1.914 L 0.283,1.875"
   id="path11854" />

      </g>
      <g
         transform="matrix(1,0,0,-1,392.83411,821.81533)"
         id="g11856">
        <path
   style="fill:#fcb217;fill-rule:nonzero;stroke:none"
   d="M 0,0 L 9.038,-2.188 L 7.94,-6.719 L 7.262,-6.563 L 6.596,-6.394 L 7.25,-3.711 L 4.858,-3.138 L 4.229,-5.73 L 3.551,-5.574 L 2.885,-5.404 L 3.514,-2.813 L 0.888,-2.175 L 0.234,-4.909 L -0.444,-4.74 L -1.11,-4.584"
   id="path11858" />

      </g>
      <g
         transform="matrix(1,0,0,-1,288.69711,824.06833)"
         id="g11860">
        <path
   style="fill:#fcb217;fill-rule:nonzero;stroke:none"
   d="M 0,0 L 0.271,0.078 C 1.319,0.378 2.121,0.391 2.676,0.105 C 3.23,-0.169 3.65,-0.807 3.921,-1.771 C 4.204,-2.8 4.155,-3.594 3.785,-4.154 C 3.415,-4.714 2.639,-5.157 1.455,-5.482 L -1.307,-6.238 C -2.503,-6.563 -3.391,-6.589 -3.995,-6.303 C -4.599,-6.016 -5.043,-5.352 -5.326,-4.323 C -5.573,-3.425 -5.524,-2.708 -5.191,-2.148 C -4.883,-1.628 -4.303,-1.25 -3.477,-1.028 L -3.304,-0.976 L -3.033,-0.898 L -2.528,-2.734 L -2.799,-2.813 C -3.255,-2.93 -3.588,-3.086 -3.785,-3.268 C -3.982,-3.464 -4.044,-3.698 -3.97,-3.959 C -3.871,-4.297 -3.674,-4.506 -3.366,-4.584 C -3.058,-4.662 -2.602,-4.623 -2.01,-4.466 L 0.752,-3.698 C 1.529,-3.49 2.047,-3.268 2.318,-3.047 C 2.577,-2.813 2.663,-2.526 2.565,-2.148 C 2.491,-1.862 2.293,-1.693 1.997,-1.628 C 1.702,-1.562 1.295,-1.601 0.764,-1.758 L 0.506,-1.823"
   id="path11862" />

      </g>
      <g
         transform="matrix(1,0,0,-1,289.77011,819.48433)"
         id="g11864">
        <path
   style="fill:#fcb217;fill-rule:nonzero;stroke:none"
   d="M 0,0 C 0.061,-0.364 -0.025,-0.638 -0.235,-0.82 C -0.456,-1.015 -0.876,-1.159 -1.492,-1.263 L -5.253,-1.927 C -5.672,-1.992 -5.993,-1.966 -6.239,-1.836 C -6.473,-1.706 -6.621,-1.484 -6.683,-1.159 C -6.732,-0.833 -6.671,-0.573 -6.486,-0.377 C -6.301,-0.169 -6.005,-0.026 -5.598,0.039 L -1.837,0.704 C -1.209,0.808 -0.765,0.808 -0.506,0.704 C -0.235,0.612 -0.074,0.365 0,0 M 1.381,0.248 C 1.196,1.29 0.838,1.993 0.296,2.332 C -0.247,2.683 -1.098,2.761 -2.232,2.553 L -6.005,1.902 C -6.856,1.745 -7.46,1.394 -7.805,0.847 C -8.138,0.3 -8.236,-0.455 -8.064,-1.406 C -7.904,-2.357 -7.558,-3.034 -7.053,-3.425 C -6.547,-3.828 -5.869,-3.959 -5.018,-3.802 L -1.233,-3.151 C -0.099,-2.943 0.665,-2.591 1.06,-2.083 C 1.455,-1.575 1.566,-0.794 1.381,0.248"
   id="path11866" />

      </g>
      <g
         transform="matrix(1,0,0,-1,287.26711,809.44333)"
         id="g11868">
        <path
   style="fill:#fcb217;fill-rule:nonzero;stroke:none"
   d="M 0,0 C 0.912,0.065 1.627,-0.117 2.12,-0.547 C 2.614,-0.99 2.897,-1.68 2.971,-2.631 C 3.045,-3.581 2.885,-4.311 2.466,-4.818 C 2.047,-5.339 1.381,-5.626 0.456,-5.704 L -6.214,-6.238 L -6.288,-5.3 L -6.362,-4.35 L 0.419,-3.803 C 0.875,-3.764 1.183,-3.672 1.356,-3.516 C 1.529,-3.36 1.603,-3.099 1.566,-2.748 C 1.541,-2.383 1.43,-2.149 1.233,-2.019 C 1.048,-1.901 0.715,-1.849 0.259,-1.888 L -6.523,-2.435 L -6.597,-1.485 L -6.671,-0.547"
   id="path11870" />

      </g>
      <g
         transform="matrix(1,0,0,-1,281.92811,805.78433)"
         id="g11872">
        <path
   style="fill:#fcb217;fill-rule:nonzero;stroke:none"
   d="M 0,0 L 0.012,0.534 C 0.012,1.016 0.099,1.342 0.284,1.524 C 0.469,1.693 0.814,1.785 1.332,1.785 C 1.874,1.772 2.232,1.693 2.417,1.524 C 2.589,1.355 2.688,1.016 2.676,0.521 L 2.676,-0.013 L 0,0 M 7.891,-1.94 L 7.903,-0.976 L 7.903,-0.039 L 4.106,-0.013 L 4.106,0.547 C 4.118,1.003 4.204,1.329 4.402,1.511 C 4.599,1.693 4.92,1.785 5.388,1.772 L 6.522,1.759 C 6.929,1.759 7.25,1.772 7.447,1.785 C 7.657,1.798 7.817,1.811 7.916,1.85 L 7.916,2.787 L 7.928,3.738 C 7.817,3.712 7.657,3.686 7.447,3.66 C 7.238,3.647 6.929,3.634 6.535,3.634 C 6.14,3.634 5.758,3.634 5.4,3.647 C 4.772,3.686 4.278,3.569 3.933,3.308 C 3.588,3.035 3.415,2.644 3.415,2.136 L 3.415,2.019 C 3.317,2.475 3.193,2.813 3.021,3.022 C 2.676,3.451 2.01,3.673 1.036,3.673 C 0.16,3.686 -0.456,3.478 -0.826,3.048 C -1.208,2.618 -1.393,1.915 -1.393,0.912 L -1.406,-0.937 L -1.406,-1.888"
   id="path11874" />

      </g>
      <g
         transform="matrix(1,0,0,-1,282.64311,797.31933)"
         id="g11876">
        <path
   style="fill:#fcb217;fill-rule:nonzero;stroke:none"
   d="M 0,0 L 4.217,0.378 L 4.081,-1.133 L 0,0 M 7.238,-3.907 L 7.324,-2.995 L 7.398,-2.083 L 5.425,-1.51 L 5.61,0.495 L 7.657,0.677 L 7.743,1.602 L 7.817,2.514 L -1.64,1.251 L -1.738,0.144 L -1.837,-0.963"
   id="path11878" />

      </g>
      <g
         transform="matrix(1,0,0,-1,291.29911,790.89833)"
         id="g11880">
        <path
   style="fill:#fcb217;fill-rule:nonzero;stroke:none"
   d="M 0,0 C -0.198,-1.055 -0.605,-1.746 -1.233,-2.058 C -1.862,-2.371 -2.861,-2.397 -4.254,-2.136 L -6.424,-1.746 C -7.669,-1.498 -8.533,-1.094 -8.989,-0.521 C -9.457,0.052 -9.593,0.872 -9.396,1.94 C -9.223,2.865 -8.865,3.516 -8.335,3.88 C -7.805,4.245 -7.09,4.323 -6.19,4.128 L -5.919,4.076 L -6.264,2.213 L -6.535,2.266 C -6.979,2.357 -7.324,2.344 -7.571,2.226 C -7.817,2.109 -7.978,1.888 -8.039,1.562 C -8.101,1.172 -8.002,0.872 -7.731,0.677 C -7.46,0.468 -6.942,0.286 -6.178,0.143 L -4.008,-0.261 C -3.021,-0.443 -2.343,-0.495 -1.998,-0.404 C -1.653,-0.313 -1.443,-0.04 -1.357,0.403 C -1.332,0.586 -1.32,0.885 -1.344,1.302 L -3.416,1.68 L -3.576,0.807 L -4.957,1.067 L -4.451,3.802 L 0.172,2.943 C 0.222,1.914 0.16,0.924 0,0"
   id="path11882" />

      </g>
      <g
         transform="matrix(1,0,0,-1,292.06311,786.52333)"
         id="g11884">
        <path
   style="fill:#fcb217;fill-rule:nonzero;stroke:none"
   d="M 0,0 L -8.951,2.527 L -7.681,7.02 L -7.016,6.824 L -6.35,6.642 L -7.102,3.985 L -4.735,3.308 L -4.007,5.887 L -3.341,5.691 L -2.676,5.509 L -3.403,2.93 L -0.814,2.201 L -0.049,4.91 L 0.616,4.728 L 1.282,4.532"
   id="path11886" />

      </g>
      <g
         transform="matrix(1,0,0,-1,312.64211,754.68233)"
         id="g11888">
        <path
   style="fill:#fcb217;fill-rule:nonzero;stroke:none"
   d="M 0,0 L 0.123,-0.247 C 0.604,-1.224 0.752,-2.018 0.555,-2.617 C 0.37,-3.217 -0.172,-3.724 -1.085,-4.154 C -2.059,-4.61 -2.848,-4.701 -3.452,-4.428 C -4.069,-4.167 -4.636,-3.477 -5.154,-2.357 L -6.374,0.235 C -6.892,1.354 -7.065,2.24 -6.88,2.878 C -6.695,3.516 -6.128,4.063 -5.154,4.519 C -4.315,4.91 -3.6,4.988 -2.996,4.753 C -2.429,4.532 -1.96,4.037 -1.59,3.256 L -1.516,3.087 L -1.405,2.839 L -3.119,2.032 L -3.23,2.279 C -3.427,2.722 -3.649,3.021 -3.859,3.178 C -4.081,3.334 -4.315,3.36 -4.562,3.243 C -4.895,3.1 -5.067,2.865 -5.092,2.54 C -5.117,2.227 -5.006,1.797 -4.734,1.237 L -3.526,-1.354 C -3.181,-2.097 -2.873,-2.565 -2.601,-2.787 C -2.342,-3.021 -2.034,-3.047 -1.689,-2.891 C -1.418,-2.761 -1.282,-2.539 -1.257,-2.24 C -1.245,-1.94 -1.356,-1.537 -1.603,-1.055 L -1.714,-0.807"
   id="path11890" />

      </g>
      <g
         transform="matrix(1,0,0,-1,317.34011,755.02033)"
         id="g11892">
        <path
   style="fill:#fcb217;fill-rule:nonzero;stroke:none"
   d="M 0,0 C -0.346,-0.131 -0.629,-0.092 -0.851,0.091 C -1.061,0.286 -1.27,0.677 -1.467,1.263 L -2.688,4.896 C -2.824,5.287 -2.848,5.612 -2.762,5.873 C -2.663,6.133 -2.466,6.316 -2.158,6.407 C -1.85,6.511 -1.578,6.498 -1.344,6.342 C -1.122,6.198 -0.937,5.925 -0.802,5.534 L 0.419,1.901 C 0.616,1.315 0.69,0.872 0.629,0.599 C 0.567,0.312 0.357,0.117 0,0 M 0.456,-1.342 C 1.467,-1.003 2.096,-0.534 2.355,0.052 C 2.614,0.638 2.564,1.484 2.194,2.578 L 0.961,6.211 C 0.69,7.032 0.259,7.579 -0.346,7.826 C -0.937,8.087 -1.689,8.061 -2.602,7.748 C -3.527,7.436 -4.143,7.006 -4.451,6.446 C -4.772,5.873 -4.796,5.183 -4.513,4.362 L -3.292,0.729 C -2.922,-0.365 -2.454,-1.068 -1.899,-1.381 C -1.332,-1.693 -0.543,-1.68 0.456,-1.342"
   id="path11894" />

      </g>
      <g
         transform="matrix(1,0,0,-1,323.34411,754.56533)"
         id="g11896">
        <path
   style="fill:#fcb217;fill-rule:nonzero;stroke:none"
   d="M 0,0 L -0.776,-0.156 L -1.541,-0.312 L -3.427,8.804 L -2.12,9.064 L -0.814,9.338 L 2.084,2.67 L 2.084,9.937 L 3.379,10.21 L 4.686,10.484 L 6.584,1.368 L 5.82,1.211 L 5.043,1.055 L 3.453,8.7 L 3.465,8.7 L 3.453,0.717 L 2.528,0.534 L 1.591,0.339 L -1.59,7.684 L -1.603,7.684"
   id="path11898" />

      </g>
      <g
         transform="matrix(1,0,0,-1,332.46811,745.01933)"
         id="g11900">
        <path
   style="fill:#fcb217;fill-rule:nonzero;stroke:none"
   d="M 0,0 L 0.53,0.052 C 1.036,0.104 1.381,0.039 1.578,-0.13 C 1.776,-0.299 1.899,-0.651 1.948,-1.185 C 2.01,-1.745 1.961,-2.136 1.8,-2.331 C 1.652,-2.539 1.319,-2.67 0.814,-2.722 L 0.271,-2.774 L 0,0 M -1.122,-8.048 L -0.172,-7.944 L 0.765,-7.853 L 0.407,-4.167 L 0.95,-4.115 C 2.195,-3.998 3.009,-3.724 3.403,-3.295 C 3.798,-2.852 3.946,-2.084 3.835,-0.964 C 3.736,0.013 3.452,0.703 2.984,1.081 C 2.515,1.459 1.776,1.589 0.777,1.498 L -1.085,1.315 L -2.034,1.211"
   id="path11902" />

      </g>
      <g
         transform="matrix(1,0,0,-1,340.92611,744.85033)"
         id="g11904">
        <path
   style="fill:#fcb217;fill-rule:nonzero;stroke:none"
   d="M 0,0 L 0.802,-4.154 L -0.715,-4.18 L 0,0 M -3.144,-7.605 L -1.307,-7.579 L -0.949,-5.56 L 1.061,-5.534 L 1.455,-7.553 L 3.305,-7.527 L 1.073,1.745 L -1.146,1.719"
   id="path11906" />

      </g>
      <g
         transform="matrix(1,0,0,-1,349.50811,746.29533)"
         id="g11908">
        <path
   style="fill:#fcb217;fill-rule:nonzero;stroke:none"
   d="M 0,0 L 0.012,0.273 C 0.061,0.755 0.024,1.107 -0.087,1.315 C -0.198,1.537 -0.419,1.654 -0.74,1.667 C -1.073,1.693 -1.32,1.615 -1.492,1.445 C -1.665,1.276 -1.763,1.003 -1.788,0.625 C -1.813,0.338 -1.739,0.091 -1.554,-0.13 C -1.381,-0.352 -1.073,-0.599 -0.617,-0.847 C 0.283,-1.368 0.912,-1.849 1.245,-2.305 C 1.59,-2.761 1.751,-3.295 1.701,-3.92 C 1.627,-4.845 1.331,-5.522 0.813,-5.952 C 0.296,-6.381 -0.444,-6.551 -1.418,-6.486 C -2.479,-6.407 -3.206,-6.134 -3.625,-5.691 C -4.032,-5.248 -4.205,-4.545 -4.131,-3.607 L -4.131,-3.529 L -4.106,-3.256 L -2.232,-3.386 L -2.257,-3.66 C -2.294,-4.102 -2.244,-4.454 -2.084,-4.688 C -1.936,-4.923 -1.677,-5.053 -1.32,-5.079 C -0.974,-5.105 -0.715,-5.027 -0.53,-4.832 C -0.346,-4.649 -0.235,-4.35 -0.21,-3.946 C -0.185,-3.634 -0.272,-3.373 -0.456,-3.139 C -0.654,-2.904 -0.987,-2.644 -1.492,-2.357 C -2.355,-1.862 -2.947,-1.407 -3.268,-0.964 C -3.601,-0.534 -3.748,-0.013 -3.699,0.599 C -3.638,1.497 -3.342,2.149 -2.824,2.565 C -2.306,2.969 -1.566,3.138 -0.592,3.073 C 0.407,2.995 1.097,2.735 1.479,2.292 C 1.825,1.862 1.972,1.211 1.899,0.338 L 1.886,0.13 L 1.861,-0.143"
   id="path11910" />

      </g>
      <g
         transform="matrix(1,0,0,-1,357.01611,747.27233)"
         id="g11912">
        <path
   style="fill:#fcb217;fill-rule:nonzero;stroke:none"
   d="M 0,0 L 0.05,0.274 C 0.136,0.755 0.136,1.107 0.037,1.328 C -0.061,1.55 -0.271,1.68 -0.591,1.732 C -0.9,1.784 -1.159,1.732 -1.343,1.576 C -1.528,1.42 -1.664,1.159 -1.713,0.782 C -1.763,0.495 -1.713,0.235 -1.553,0 C -1.405,-0.234 -1.109,-0.495 -0.678,-0.794 C 0.173,-1.393 0.753,-1.927 1.048,-2.409 C 1.357,-2.891 1.455,-3.438 1.357,-4.05 C 1.209,-4.962 0.851,-5.613 0.296,-6.003 C -0.258,-6.381 -1.011,-6.485 -1.972,-6.329 C -3.033,-6.16 -3.735,-5.821 -4.105,-5.339 C -4.475,-4.857 -4.574,-4.154 -4.426,-3.23 L -4.414,-3.138 L -4.364,-2.865 L -2.515,-3.177 L -2.564,-3.451 C -2.638,-3.881 -2.613,-4.232 -2.49,-4.48 C -2.354,-4.727 -2.108,-4.883 -1.763,-4.936 C -1.417,-4.988 -1.146,-4.936 -0.949,-4.766 C -0.752,-4.597 -0.616,-4.31 -0.542,-3.907 C -0.493,-3.607 -0.554,-3.334 -0.727,-3.086 C -0.9,-2.826 -1.208,-2.539 -1.676,-2.214 C -2.502,-1.654 -3.045,-1.133 -3.329,-0.664 C -3.624,-0.208 -3.723,0.326 -3.624,0.925 C -3.476,1.81 -3.131,2.435 -2.576,2.8 C -2.022,3.165 -1.269,3.269 -0.308,3.113 C 0.679,2.943 1.344,2.631 1.677,2.149 C 1.998,1.693 2.084,1.029 1.936,0.169 L 1.899,-0.039 L 1.862,-0.312"
   id="path11914" />

      </g>
      <g
         transform="matrix(1,0,0,-1,361.40611,745.21433)"
         id="g11916">
        <path
   style="fill:#fcb217;fill-rule:nonzero;stroke:none"
   d="M 0,0 L 0.925,-0.222 L 1.849,-0.443 L -0.296,-9.494 L -1.221,-9.273 L -2.146,-9.051"
   id="path11918" />

      </g>
      <g
         transform="matrix(1,0,0,-1,365.66011,754.69533)"
         id="g11920">
        <path
   style="fill:#fcb217;fill-rule:nonzero;stroke:none"
   d="M 0,0 C -0.358,0.117 -0.568,0.313 -0.629,0.586 C -0.691,0.873 -0.629,1.302 -0.444,1.901 L 0.727,5.548 C 0.85,5.939 1.023,6.225 1.245,6.368 C 1.479,6.525 1.738,6.551 2.059,6.459 C 2.367,6.355 2.564,6.173 2.663,5.926 C 2.761,5.665 2.749,5.339 2.613,4.936 L 1.454,1.302 C 1.269,0.703 1.06,0.313 0.85,0.117 C 0.641,-0.078 0.357,-0.117 0,0 M -0.432,-1.341 C 0.579,-1.667 1.368,-1.667 1.923,-1.341 C 2.478,-1.016 2.934,-0.312 3.292,0.794 L 4.451,4.441 C 4.722,5.274 4.685,5.965 4.352,6.512 C 4.031,7.072 3.403,7.501 2.478,7.801 C 1.565,8.087 0.801,8.1 0.221,7.84 C -0.37,7.579 -0.802,7.032 -1.061,6.199 L -2.232,2.553 C -2.577,1.446 -2.614,0.612 -2.355,0.026 C -2.084,-0.56 -1.443,-1.016 -0.432,-1.341"
   id="path11922" />

      </g>
      <g
         transform="matrix(1,0,0,-1,370.86311,757.96433)"
         id="g11924">
        <path
   style="fill:#fcb217;fill-rule:nonzero;stroke:none"
   d="M 0,0 L -0.703,0.326 L -1.431,0.651 L 2.429,9.129 L 3.699,8.543 L 4.981,7.97 L 3.181,0.157 L 6.436,7.306 L 7.151,6.981 L 7.866,6.655 L 4.019,-1.823 L 2.749,-1.237 L 1.467,-0.664 L 3.279,7.215"
   id="path11926" />

      </g>
      <g
         transform="matrix(1,0,0,-1,390.61511,853.94233)"
         id="g11928">
        <path
   style="fill:#fcb217;fill-rule:nonzero;stroke:none"
   d="M 0,0 L 2.207,-2.162 L 1.393,2.005 L 3.033,1.302 L 3.797,3.581 L 4.562,1.302 L 6.202,2.058 L 5.375,-2.214 L 7.644,0.013 L 7.669,-1.459 L 9.481,-0.807 L 8.902,-2.683 L 9.95,-2.917 L 6.843,-5.209 L 7.434,-6.147 L 4.031,-5.795 L 4.007,-8.426 L 3.612,-8.426 L 3.625,-5.795 L 0.283,-6.147 L 0.813,-5.261 L -2.417,-2.917 L -1.295,-2.631 L -1.763,-0.807 L -0.013,-1.394"
   id="path11930" />

      </g>
      <g
         transform="matrix(0.97302,0,0,-1.0277,36.166114,893.35933)"
         id="g11932">
        <g
   transform="translate(364.278,38.353)"
   id="g11934">
          <path
   style="fill:none;stroke:#fcb217;stroke-width:0.38;stroke-linecap:butt;stroke-linejoin:miter;stroke-miterlimit:4"
   d="M 0,0 L 2.268,-2.104 L 1.432,1.951 L 3.117,1.267 L 3.902,3.484 L 4.689,1.267 L 6.374,2.002 L 5.524,-2.154 L 7.856,0.013 L 7.882,-1.42 L 9.744,-0.785 L 9.149,-2.611 L 10.226,-2.838 L 7.033,-5.068 L 7.64,-5.981 L 4.143,-5.639 L 4.118,-8.199 L 3.712,-8.199 L 3.726,-5.639 L 0.291,-5.981 L 0.836,-5.119 L -2.484,-2.838 L -1.331,-2.56 L -1.812,-0.785 L -0.013,-1.356 L 0,0 z "
   stroke-miterlimit="4"
   id="path11936" />

        </g>

      </g>
      <g
         transform="matrix(1,0,0,-1,286.19411,853.87733)"
         id="g11938">
        <path
   style="fill:#fcb217;fill-rule:nonzero;stroke:none"
   d="M 0,0 L 2.195,-2.162 L 1.393,1.993 L 3.033,1.289 L 3.798,3.581 L 4.55,1.289 L 6.19,2.058 L 5.376,-2.227 L 7.632,0 L 7.657,-1.459 L 9.482,-0.82 L 8.89,-2.696 L 9.95,-2.93 L 6.843,-5.209 L 7.423,-6.16 L 4.032,-5.795 L 4.007,-8.439 L 3.6,-8.439 L 3.613,-5.795 L 0.271,-6.147 L 0.802,-5.274 L -2.417,-2.93 L -1.307,-2.631 L -1.775,-0.82 L -0.012,-1.406"
   id="path11940" />

      </g>
      <g
         transform="matrix(0.97302,0,0,-1.0277,36.166114,893.35933)"
         id="g11942">
        <g
   transform="translate(256.962,38.416)"
   id="g11944">
          <path
   style="fill:none;stroke:#fcb217;stroke-width:0.38;stroke-linecap:butt;stroke-linejoin:miter;stroke-miterlimit:4"
   d="M 0,0 L 2.256,-2.104 L 1.432,1.939 L 3.117,1.254 L 3.903,3.484 L 4.676,1.254 L 6.362,2.003 L 5.525,-2.167 L 7.844,0 L 7.869,-1.42 L 9.745,-0.798 L 9.137,-2.623 L 10.226,-2.851 L 7.033,-5.068 L 7.629,-5.994 L 4.144,-5.639 L 4.118,-8.211 L 3.7,-8.211 L 3.713,-5.639 L 0.279,-5.981 L 0.824,-5.132 L -2.484,-2.851 L -1.343,-2.56 L -1.824,-0.798 L -0.012,-1.368 L 0,0 z "
   stroke-miterlimit="4"
   id="path11946" />

        </g>

      </g>
    </g>
  </g>
</svg>
